<?xml version="1.0" standalone="no"?>
<!DOCTYPE svg PUBLIC "-//W3C//DTD SVG 1.1//EN"
  "http://www.w3.org/Graphics/SVG/1.1/DTD/svg11.dtd">
<svg width="102mm" height="154.99999999999997mm" viewBox="-56.400001525878906 -80.99999999999999 102 154.99999999999997" xmlns="http://www.w3.org/2000/svg" version="1.1">
	<title>svgOutput</title>
	<desc>made with tinkercad</desc>
<path d="M 44.599998474121094 23.94309043884277 L 29.25104522705078 56.78471374511717 L 21.672624588012695 72.99999999999999 L 18.60300064086914 72.99999999999999 L 14.97368335723877 72.99999999999999 L -24.967365264892578 72.99999999999999 L -29.402999877929688 72.99999999999999 L -32.58177185058594 72.99999999999999 L -40.310054779052734 56.463745117187486 L -55.400001525878906 24.17568397521972 L -55.400001525878906 23.37818908691406 L -55.400001525878906 -79.99999999999999 L -40.00299835205078 -79.99999999999999 L -36.112998962402344 -79.99999999999999 L -33.3120002746582 -79.99999999999999 L -29.402999877929688 -79.99999999999999 L -25.000999450683594 -79.99999999999999 L 14.201000213623047 -79.99999999999999 L 18.60300064086914 -79.99999999999999 L 21.892000198364258 -79.99999999999999 L 24.69300079345703 -79.99999999999999 L 29.202999114990234 -79.99999999999999 L 44.599998474121094 -79.99999999999999 L 44.599998474121094 -6.533421039581297 L 44.599998474121094 23.138292312622067 L 44.599998474121094 23.94309043884277 M -15.104937553405762 64.00299835205077 L 5.1155500411987305 64.00299835205077 L 18.60300064086914 64.00299835205077 L 18.60300064086914 59.96926116943358 L 18.60300064086914 15.362170219421383 L 18.60300064086914 13.998000144958493 L 14.042327880859375 13.998000144958493 L -24.040307998657227 13.998000144958493 L -25.000999450683594 13.998000144958493 L -29.402999877929688 13.998000144958493 L -29.402999877929688 15.602067947387692 L -29.402999877929688 59.72621917724608 L -29.402999877929688 64.00299835205077 L -15.104937553405762 64.00299835205077 M -33.3120002746582 20.999999999999996 L -33.3120002746582 16.771312713623043 L -33.3120002746582 -49.006000518798814 L -36.112998962402344 -49.006000518798814 L -36.112998962402344 17.609136581420895 L -36.112998962402344 20.999999999999996 L -33.3120002746582 20.999999999999996 M 24.69300079345703 21.00300025939941 L 24.69300079345703 17.183788299560543 L 24.69300079345703 -0.5789169669151304 L 24.69300079345703 -49.00299835205077 L 21.892000198364258 -49.00299835205077 L 21.892000198364258 0.25890725851058966 L 21.892000198364258 16.34596252441406 L 21.892000198364258 21.00300025939941 L 24.69300079345703 21.00300025939941 M -29.402999877929688 -74.60199737548827 L -33.3120002746582 -74.60199737548827 L -36.112998962402344 -74.60199737548827 L -40.00299835205078 -74.60199737548827 L -40.00299835205078 -66.59799957275389 L -36.112998962402344 -66.59799957275389 L -33.3120002746582 -66.59799957275389 L -29.402999877929688 -66.59799957275389 L -25.000999450683594 -66.59799957275389 L -25.000999450683594 -74.60199737548827 L -29.402999877929688 -74.60199737548827 M 14.201000213623047 -75.30300140380858 L 14.201000213623047 -67.29799652099608 L 18.60300064086914 -67.29799652099608 L 21.892000198364258 -67.29799652099608 L 24.69300079345703 -67.29799652099608 L 29.202999114990234 -67.29799652099608 L 29.202999114990234 -75.30300140380858 L 24.69300079345703 -75.30300140380858 L 21.892000198364258 -75.30300140380858 L 18.60300064086914 -75.30300140380858 L 14.201000213623047 -75.30300140380858 z" fill="none" stroke="rgb(255,0,0)" stroke-width="0.001mm" />
</svg>